<svg width="17" height="17" viewBox="0 0 17 17" fill="none" xmlns="http://www.w3.org/2000/svg">
<path d="M8.49984 1.38123C4.58984 1.38123 1.4165 4.55456 1.4165 8.46456C1.4165 12.3746 4.58984 15.5479 8.49984 15.5479H12.0415V14.1312H8.49984C5.42567 14.1312 2.83317 11.5387 2.83317 8.46456C2.83317 5.39039 5.42567 2.79789 8.49984 2.79789C11.574 2.79789 14.1665 5.39039 14.1665 8.46456V9.47748C14.1665 10.0371 13.6636 10.5896 13.104 10.5896C12.5444 10.5896 12.0415 10.0371 12.0415 9.47748V8.46456C12.0415 6.50956 10.4548 4.92289 8.49984 4.92289C6.54484 4.92289 4.95817 6.50956 4.95817 8.46456C4.95817 10.4196 6.54484 12.0062 8.49984 12.0062C9.47734 12.0062 10.3698 11.6096 11.0073 10.965C11.4678 11.5954 12.2611 12.0062 13.104 12.0062C14.4994 12.0062 15.5832 10.8729 15.5832 9.47748V8.46456C15.5832 4.55456 12.4098 1.38123 8.49984 1.38123ZM8.49984 10.5896C7.324 10.5896 6.37484 9.64039 6.37484 8.46456C6.37484 7.28873 7.324 6.33956 8.49984 6.33956C9.67567 6.33956 10.6248 7.28873 10.6248 8.46456C10.6248 9.64039 9.67567 10.5896 8.49984 10.5896Z" fill="#232859"/>
</svg>
