<svg width="221" height="250" viewBox="0 0 221 250" fill="none" xmlns="http://www.w3.org/2000/svg">
<circle opacity="0.6" cx="110.5" cy="110.5" r="110.5" fill="#414B9B"/>
<path d="M143.808 220.188H85.3839C75.3635 220.188 67.1655 212.022 67.1655 202.042V150.628C67.1655 140.648 75.3635 132.482 85.3839 132.482H143.809C153.829 132.482 162.027 140.648 162.027 150.628V202.042C162.027 212.022 153.829 220.188 143.808 220.188Z" fill="white"/>
<path d="M143.809 132.482C153.829 132.482 162.027 140.647 162.027 150.627V202.041C162.027 212.022 153.829 220.187 143.809 220.187H85.3842C75.3638 220.187 67.1658 212.022 67.1658 202.041V150.627C67.1658 140.647 75.3638 132.482 85.3842 132.482H143.809ZM143.809 129.614H85.3842C82.5465 129.614 79.7878 130.172 77.1846 131.274C74.6751 132.336 72.42 133.853 70.4815 135.784C68.5431 137.715 67.0193 139.962 65.953 142.46C64.8473 145.053 64.2861 147.801 64.2861 150.627V202.041C64.2861 204.868 64.8473 207.615 65.953 210.208C67.0193 212.708 68.5423 214.954 70.4815 216.884C72.42 218.815 74.676 220.333 77.1846 221.395C79.7878 222.496 82.5465 223.055 85.3842 223.055H143.809C146.647 223.055 149.406 222.496 152.009 221.395C154.518 220.333 156.774 218.816 158.712 216.884C160.65 214.954 162.174 212.707 163.24 210.208C164.346 207.615 164.907 204.868 164.907 202.041V150.627C164.907 147.801 164.346 145.053 163.24 142.46C162.174 139.961 160.651 137.715 158.712 135.784C156.774 133.854 154.518 132.336 152.009 131.274C149.406 130.172 146.646 129.614 143.809 129.614Z" fill="#232859"/>
<path d="M160.721 188.396C151.624 189.458 142.557 189.72 142.557 189.72C142.557 189.72 137.94 166.787 136.66 148.805C135.717 135.481 136.604 124.878 142.557 128.336C145.296 129.927 148.451 132.924 151.74 136.726C164.077 150.989 178.252 176.601 179.029 181.915C179.531 185.333 170.113 187.293 160.721 188.396Z" fill="white"/>
<path d="M141.339 191.247L141.091 190.014C141.063 189.873 138.239 175.782 136.412 161.192C135.334 152.59 134.807 145.488 134.845 140.083C134.897 132.701 135.973 128.515 138.232 126.908C139.223 126.202 140.91 125.655 143.312 127.05C151.232 131.652 161.284 146.313 166.571 154.642C170.097 160.198 173.473 166.038 176.077 171.086C177.912 174.643 180.17 179.371 180.512 181.699C180.611 182.375 180.545 183.401 179.664 184.445C178.392 185.954 175.748 187.136 171.344 188.162C168.114 188.914 163.965 189.561 159.011 190.086C150.622 190.973 142.68 191.209 142.601 191.211L141.339 191.247ZM140.495 129.167C140.206 129.167 140.055 129.275 139.972 129.333C138.995 130.028 136.068 134.35 139.38 160.808C140.881 172.79 143.059 184.439 143.783 188.184C146.337 188.081 152.397 187.787 158.711 187.119C173.369 185.566 176.644 183.39 177.372 182.527C177.574 182.289 177.557 182.178 177.55 182.13C177.125 179.234 171.595 168.136 164.041 156.235C155.292 142.452 147.188 132.753 141.804 129.625C141.194 129.27 140.778 129.167 140.495 129.167Z" fill="#232859"/>
<path d="M96.2706 127.49L94.4292 141.362L93.3818 149.249L91.148 166.088C91.148 166.088 87.0655 168.853 80.2744 171.045C77.737 171.865 74.8146 172.598 71.5894 173.079C66.3171 173.869 60.2213 173.97 53.6169 172.625C36.6253 169.158 26.4279 156.587 22.013 150.267C13.4801 138.067 12.167 134.769 14.539 129.633C16.3499 125.697 19.4526 124.979 19.4526 124.979C19.4526 124.979 19.2995 121.833 21.7991 120.715C29.2903 117.364 38.9405 126.313 38.9405 126.313C38.9405 126.313 39.3001 116.69 44.4711 118.911C48.0337 120.443 48.8416 130.92 48.8416 130.92C48.8416 130.92 53.6235 137.04 61.2201 137.852C65.1899 138.276 70.6835 137.129 76.1392 135.463C76.2026 135.444 76.2668 135.426 76.3301 135.403C79.2377 134.509 82.1265 133.472 84.7716 132.447C85.9581 131.989 87.0951 131.53 88.1614 131.091C92.9285 129.123 96.2706 127.49 96.2706 127.49Z" fill="white"/>
<path opacity="0.35" d="M22.0104 150.267C26.4295 156.586 36.6251 169.159 53.6152 172.624C64.2576 174.793 73.5836 173.2 80.2751 171.042C87.0662 168.853 91.1479 166.086 91.1479 166.086L91.4474 152.798C91.4474 152.798 86.8202 148.356 82.5105 150.168C77.3321 152.343 78.9916 159.739 71.5958 161.796C51.0358 167.514 34.3338 157.067 28.9595 152.48C21.5036 146.118 19.5586 142.11 18.5096 140.457C16.3383 137.035 14.6615 134.347 13.7162 131.939C12.7527 136.012 14.8096 139.968 22.0104 150.267Z" fill="#232859"/>
<path d="M63.8683 175.148C60.3206 175.148 56.7876 174.793 53.3156 174.084C45.6779 172.526 38.5519 169.019 32.1369 163.658C28.0083 160.208 24.1882 155.988 20.7836 151.119C16.6286 145.175 13.9876 141.093 12.783 137.813C11.6287 134.67 11.7431 132.12 13.1763 129.01C14.5874 125.946 16.7208 124.538 18.0101 123.934C18.2207 122.359 19.041 120.316 21.1851 119.357C27.2768 116.631 34.3065 120.849 37.786 123.445C37.8197 123.269 37.8575 123.089 37.8978 122.906C38.4746 120.33 39.4701 118.581 40.8565 117.71C41.7081 117.175 43.129 116.712 45.0666 117.545C47.0321 118.391 48.4662 120.881 49.4519 125.158C49.9562 127.349 50.199 129.406 50.2903 130.317C51.3484 131.511 55.4836 135.739 61.3811 136.369C72.1469 137.518 95.3768 126.265 95.6105 126.151C96.1058 125.909 96.6949 125.959 97.1424 126.28C97.59 126.6 97.8245 127.141 97.7529 127.685L92.6337 166.281C92.5778 166.702 92.3449 167.079 91.992 167.318C91.8208 167.434 87.7152 170.19 80.8888 172.411C76.8902 173.713 72.7764 174.56 68.6626 174.931C67.0639 175.076 65.4645 175.148 63.8683 175.148ZM19.7987 126.427C19.6054 126.479 17.3206 127.161 15.8964 130.252C13.9785 134.415 14.45 136.841 23.2395 149.414C31.5033 161.235 42.1104 168.755 53.9154 171.163C64.6713 173.356 74.0138 171.511 79.9574 169.577C84.996 167.937 88.4705 165.981 89.7557 165.2L94.4257 129.995C91.9862 131.105 87.9958 132.848 83.5175 134.52C73.5489 138.24 65.9927 139.859 61.0619 139.333C52.9272 138.465 47.8722 132.106 47.6607 131.836C47.4806 131.605 47.3719 131.326 47.3497 131.034C47.3481 131.01 47.1449 128.465 46.5261 125.792C45.4837 121.286 44.2364 120.435 43.8793 120.281C42.9858 119.897 42.5999 120.139 42.4543 120.23C41.1963 121.018 40.5151 124.294 40.4328 126.368C40.4097 126.95 40.0477 127.466 39.5072 127.689C38.9658 127.911 38.3454 127.799 37.9168 127.402C37.8279 127.32 28.9034 119.171 22.411 122.076C20.9152 122.745 20.9424 124.765 20.9465 124.91C20.9909 125.646 20.5219 126.274 19.7987 126.427Z" fill="#232859"/>
<path d="M40.1716 126.311C40.2061 126.73 40.1436 127.111 40.0597 127.441C40.0177 127.612 39.9659 127.759 39.9132 127.911C39.8597 128.052 39.8013 128.197 39.7437 128.325C39.5076 128.855 39.2525 129.293 39.0098 129.718C38.7663 130.141 38.5318 130.544 38.3138 130.947L38.1542 131.25C38.104 131.352 38.0505 131.452 38.0019 131.555L37.8604 131.863L37.7255 132.174L37.6029 132.491L37.4894 132.812C37.4507 132.919 37.4219 133.029 37.3873 133.138C37.3511 133.247 37.324 133.358 37.2944 133.469C37.1808 133.915 37.0829 134.374 37.0261 134.847C36.9644 135.319 36.9249 135.803 36.9134 136.295C36.9011 136.543 36.906 136.79 36.9036 137.043C36.8994 137.169 36.9101 137.294 36.911 137.421C36.9134 137.548 36.9175 137.675 36.9167 137.803V137.812C36.9167 137.911 36.8361 137.992 36.7357 137.992C36.6658 137.992 36.6057 137.952 36.5761 137.894C36.3359 137.43 36.1186 136.949 35.9508 136.445C35.7739 135.944 35.6472 135.421 35.5542 134.886C35.3716 133.816 35.3757 132.683 35.5764 131.577L35.6595 131.164C35.6916 131.028 35.727 130.893 35.7607 130.756C35.7969 130.621 35.8373 130.488 35.8751 130.353C35.9146 130.219 35.9615 130.089 36.0051 129.957C36.1853 129.432 36.4083 128.934 36.6378 128.467C36.8665 128.001 37.1101 127.561 37.3075 127.179C37.5157 126.792 37.6333 126.478 37.7025 126.309L37.8473 125.954C38.099 125.338 38.8041 125.042 39.422 125.293C39.8589 125.472 40.1345 125.874 40.1716 126.311Z" fill="#232859"/>
<path d="M51.9715 173.648C51.5939 173.648 51.2294 173.44 51.05 173.08C50.7966 172.574 51.0039 171.959 51.5124 171.707C55.6616 169.651 58.4968 163.234 59.7096 153.15C60.65 145.336 60.2592 138.068 60.2551 137.996C60.2238 137.431 60.6574 136.948 61.2243 136.916C61.7887 136.884 62.2766 137.317 62.3087 137.881C62.3128 137.955 62.7135 145.378 61.755 153.367C61.1881 158.094 60.2625 162.106 59.0037 165.289C57.3746 169.41 55.1622 172.186 52.429 173.541C52.2817 173.614 52.1254 173.648 51.9715 173.648Z" fill="#232859"/>
<g opacity="0.35">
<g opacity="0.35">
<g opacity="0.35">
<g opacity="0.35">
<path opacity="0.35" d="M184.706 239.583V239.374C183.061 239.444 184.706 239.583 184.706 239.583Z" fill="#232859"/>
</g>
</g>
</g>
</g>
<path d="M163.947 214.418H65.1414C65.1414 214.418 65.7436 197.434 71.5885 173.078C73.9309 163.31 77.1191 152.356 81.4485 140.836C82.4885 138.07 83.5967 135.272 84.7716 132.446C88.0569 124.564 91.8885 116.491 96.357 108.419H132.732C136.425 115.093 139.684 121.765 142.558 128.335C144.418 132.584 146.117 136.788 147.666 140.917C154.427 158.919 158.398 175.534 160.722 188.395C163.587 204.262 163.947 214.418 163.947 214.418Z" fill="white"/>
<path d="M150.382 153.584C152.292 155.707 153.165 158.179 153.971 160.661C154.376 161.902 154.775 163.146 155.156 164.396C155.347 165.021 155.543 165.644 155.713 166.274C155.888 166.903 156.059 167.534 156.23 168.164L156.73 170.058C156.895 170.69 157.061 171.321 157.215 171.956L158.125 175.766C158.273 176.402 158.435 177.034 158.58 177.671L159.013 179.58L159.458 181.487C159.608 182.122 159.763 182.756 159.903 183.394L160.76 187.215C160.907 187.851 161.034 188.492 161.17 189.13L161.571 191.047L161.772 192.005L161.872 192.484L161.966 192.965L162.342 194.886C162.467 195.527 162.596 196.167 162.732 196.806C162.862 197.446 162.993 198.086 163.129 198.725C163.702 201.276 164.12 203.86 164.294 206.477C164.316 206.804 164.341 207.13 164.357 207.459L164.399 208.443C164.42 209.1 164.438 209.756 164.429 210.418C164.424 211.077 164.41 211.738 164.367 212.401C164.328 213.064 164.273 213.727 164.173 214.395C164.154 214.523 164.033 214.612 163.904 214.593C163.816 214.58 163.747 214.52 163.717 214.443L163.716 214.44C163.244 213.19 162.858 211.935 162.493 210.679C162.314 210.052 162.141 209.422 161.974 208.794L161.734 207.849C161.658 207.533 161.58 207.219 161.501 206.903C161.195 205.642 160.925 204.377 160.683 203.107C160.566 202.471 160.46 201.834 160.363 201.195C160.258 200.556 160.162 199.917 160.062 199.278C159.965 198.638 159.863 197.999 159.759 197.361C159.649 196.724 159.527 196.088 159.402 195.453L159.03 193.548L158.937 193.072L158.837 192.597L158.638 191.647L158.24 189.747C158.105 189.114 157.979 188.479 157.833 187.848L156.983 184.059C156.846 183.426 156.686 182.798 156.536 182.169L156.071 180.283L155.595 178.401C155.517 178.087 155.429 177.775 155.345 177.463L155.089 176.526L154.062 172.781C153.706 171.536 153.343 170.294 152.996 169.047C152.824 168.423 152.651 167.799 152.483 167.174L152.358 166.705L152.225 166.238L151.965 165.303C151.617 164.057 151.287 162.805 150.962 161.551L150.723 160.608C150.643 160.295 150.555 159.983 150.471 159.67C150.304 159.044 150.164 158.41 150.059 157.765C149.955 157.119 149.881 156.464 149.853 155.793C149.839 155.458 149.837 155.119 149.849 154.775C149.862 154.43 149.885 154.082 149.946 153.722L149.948 153.709C149.971 153.572 150.1 153.481 150.237 153.504C150.295 153.514 150.346 153.544 150.382 153.584Z" fill="#232859"/>
<path d="M64.9097 214.41C64.7574 214.073 64.653 213.737 64.555 213.401C64.4571 213.063 64.3839 212.73 64.3189 212.394C64.1873 211.722 64.1165 211.054 64.077 210.387C64.0589 210.054 64.0466 209.721 64.0474 209.389C64.0482 209.057 64.0614 208.727 64.077 208.397L64.133 207.406C64.1503 207.076 64.1708 206.746 64.198 206.416C64.3008 205.099 64.4012 203.779 64.5559 202.468C64.6258 201.811 64.704 201.155 64.7813 200.499C64.8192 200.171 64.8702 199.845 64.9146 199.517L65.0536 198.536L65.3441 196.577C65.4461 195.925 65.5646 195.276 65.6756 194.625C65.9027 193.324 66.1167 192.022 66.3758 190.728C66.6276 189.433 66.858 188.134 67.1155 186.841C67.3771 185.548 67.6322 184.254 67.8839 182.96C67.9481 182.636 68.0057 182.311 68.0756 181.989L68.283 181.022L68.6968 179.088L69.1107 177.154C69.1461 176.993 69.1781 176.832 69.2152 176.671L69.3287 176.19L69.5558 175.227L70.4633 171.376C70.5365 171.055 70.6188 170.736 70.7003 170.416C70.7792 170.095 70.8599 169.776 70.9356 169.455C71.0886 168.814 71.24 168.172 71.3856 167.529C71.5345 166.886 71.6802 166.242 71.834 165.601C71.9821 164.957 72.1681 164.325 72.354 163.691C72.5441 163.059 72.7456 162.431 72.9571 161.805C73.1694 161.18 73.3948 160.558 73.6227 159.937L73.9748 159.01C74.0341 158.856 74.0999 158.703 74.1641 158.55C74.2291 158.397 74.2916 158.244 74.3591 158.092C74.6248 157.483 74.8939 156.877 75.1802 156.276C75.4632 155.674 75.7586 155.076 76.0688 154.484C76.3789 153.893 76.7006 153.305 77.0577 152.73C77.126 152.619 77.2716 152.585 77.3827 152.654C77.4584 152.7 77.4987 152.783 77.4946 152.867V152.87C77.3465 155.574 76.838 158.148 76.3362 160.72C76.207 161.362 76.0754 162.002 75.9305 162.64C75.7849 163.277 75.6286 163.91 75.4624 164.54C75.1152 165.797 74.7663 167.054 74.4027 168.307C74.2208 168.934 74.0439 169.562 73.8687 170.191C73.7798 170.504 73.6967 170.82 73.612 171.135C73.5289 171.45 73.4433 171.765 73.3726 172.084L72.4749 175.893L72.2503 176.846L72.1384 177.322C72.1014 177.481 72.0693 177.64 72.0348 177.799L71.625 179.713L71.2153 181.626L71.0104 182.583C70.9421 182.902 70.8845 183.223 70.8212 183.543C69.7697 188.656 69.063 193.83 68.376 198.993L68.1094 200.929C68.0263 201.575 67.9432 202.221 67.8527 202.865L67.3228 206.736C67.2266 207.381 67.1492 208.026 67.062 208.671C67.0167 208.993 66.969 209.316 66.909 209.637C66.8497 209.958 66.7913 210.279 66.7189 210.6C66.5749 211.241 66.3964 211.88 66.1849 212.517C66.0796 212.836 65.9537 213.156 65.8246 213.474C65.6921 213.792 65.5481 214.111 65.3704 214.428L65.3688 214.432C65.2996 214.554 65.1441 214.599 65.0207 214.53C64.9689 214.5 64.9319 214.458 64.9097 214.41Z" fill="#232859"/>
<path d="M93.599 192.99C87.9639 195.263 79.2427 194.787 73.2974 194.07C69.7315 193.641 67.2279 190.363 67.7536 186.824C68.2333 183.594 71.0874 181.245 74.3612 181.398C79.9223 181.658 88.2642 181.779 93.5472 180.612" fill="white"/>
<g opacity="0.35">
<g opacity="0.35">
<g opacity="0.35">
<g opacity="0.35">
<path opacity="0.35" d="M93.6004 192.989C87.9636 195.265 79.2423 194.785 73.2971 194.073C69.7312 193.642 67.2284 190.363 67.7541 186.826C67.8586 186.104 68.0865 185.426 68.4099 184.808C69.3486 186.593 71.1266 187.909 73.2971 188.172C79.2316 188.889 87.9381 189.364 93.5757 187.103L93.6004 192.989Z" fill="#232859"/>
</g>
</g>
</g>
</g>
<path d="M82.3953 196.153C79.1347 196.153 75.8931 195.885 73.1171 195.551C70.991 195.294 69.1044 194.219 67.8045 192.523C66.5021 190.823 65.9582 188.722 66.2725 186.606C66.5588 184.678 67.5478 182.933 69.0567 181.694C70.5673 180.452 72.4761 179.819 74.431 179.91C82.6232 180.292 89.2967 180.025 93.2221 179.158C94.0103 178.984 95.9684 178.978 97.1244 182.679C98.2985 186.44 98.1685 192.757 94.1608 194.373C90.8558 195.705 86.6103 196.153 82.3953 196.153ZM74.0575 182.882C71.6435 182.882 69.5915 184.633 69.2344 187.041C69.0394 188.354 69.3768 189.659 70.1847 190.714C70.9902 191.765 72.1594 192.431 73.4774 192.59C81.979 193.614 88.9264 193.266 93.0378 191.608C94.2587 191.116 94.6092 189.145 94.7038 188.321C95.033 185.436 94.1518 182.771 93.5997 182.126C88.2419 183.248 80.1681 183.162 74.292 182.888C74.213 182.883 74.1348 182.882 74.0575 182.882Z" fill="#232859"/>
<path d="M136.703 192.99C142.338 195.263 151.059 194.787 157.004 194.07C160.57 193.641 163.074 190.363 162.548 186.824C162.069 183.594 159.214 181.245 155.941 181.398C150.38 181.658 142.038 181.779 136.755 180.612" fill="white"/>
<g opacity="0.35">
<g opacity="0.35">
<g opacity="0.35">
<g opacity="0.35">
<path opacity="0.35" d="M157.002 194.073C151.057 194.785 142.337 195.265 136.699 192.989L136.724 187.048C142.361 189.309 151.067 188.834 157.002 188.117C159.163 187.859 160.931 186.553 161.875 184.777C162.207 185.401 162.441 186.089 162.55 186.825C163.072 190.363 160.569 193.642 157.002 194.073Z" fill="#232859"/>
</g>
</g>
</g>
</g>
<path d="M147.906 196.153C143.691 196.153 139.447 195.705 136.141 194.373C132.133 192.757 132.003 186.439 133.177 182.679C134.333 178.978 136.292 178.984 137.08 179.157C141.006 180.025 147.679 180.292 155.871 179.91C157.827 179.819 159.735 180.452 161.245 181.693C162.754 182.933 163.743 184.677 164.029 186.606C164.344 188.722 163.799 190.823 162.497 192.522C161.197 194.219 159.311 195.294 157.185 195.55C154.409 195.885 151.166 196.153 147.906 196.153ZM136.703 182.126C136.151 182.771 135.27 185.436 135.599 188.321C135.693 189.145 136.043 191.116 137.265 191.609C141.376 193.266 148.324 193.615 156.825 192.59C158.142 192.431 159.312 191.765 160.118 190.714C160.926 189.659 161.263 188.355 161.068 187.042C160.7 184.556 158.526 182.771 156.012 182.888C150.134 183.162 142.061 183.247 136.703 182.126Z" fill="#232859"/>
<path d="M138.881 176.522V196.358C138.881 200.038 135.856 203.051 132.161 203.051H95.4834C91.7933 203.051 88.7688 200.038 88.7688 196.358V176.522C88.7688 172.842 91.7933 169.834 95.4834 169.834H132.161C134.337 169.834 136.278 170.878 137.51 172.485C138.369 173.608 138.881 175.008 138.881 176.522Z" fill="white"/>
<g opacity="0.35">
<g opacity="0.35">
<g opacity="0.35">
<g opacity="0.35">
<path opacity="0.35" d="M138.879 176.522V196.358C138.879 200.038 135.857 203.049 132.162 203.049H95.4845C91.7894 203.049 88.7666 200.038 88.7666 196.358V188.939C94.275 194.532 105.108 198.044 115.044 198.096C118.236 198.113 120.812 195.598 121.039 192.426C121.042 192.394 121.044 192.362 121.047 192.331C121.291 189.548 123.592 187.295 126.39 187.094C129.576 186.865 132.265 189.209 132.58 192.255C137.389 186.342 135.981 176.064 137.51 172.485C138.37 173.609 138.879 175.007 138.879 176.522Z" fill="#232859"/>
</g>
</g>
</g>
</g>
<path d="M132.163 204.541H95.4838C90.9553 204.541 87.271 200.871 87.271 196.361V176.522C87.271 172.012 90.9553 168.342 95.4838 168.342H132.163C136.691 168.342 140.375 172.012 140.375 176.522V196.361C140.375 200.871 136.691 204.541 132.163 204.541ZM95.4838 171.323C92.6058 171.323 90.2642 173.655 90.2642 176.522V196.361C90.2642 199.227 92.6058 201.559 95.4838 201.559H132.163C135.041 201.559 137.382 199.227 137.382 196.361V176.522C137.382 173.655 135.041 171.323 132.163 171.323H95.4838Z" fill="#232859"/>
<path d="M126.817 192.21C130.016 192.21 132.609 189.627 132.609 186.441C132.609 183.255 130.016 180.672 126.817 180.672C123.618 180.672 121.025 183.255 121.025 186.441C121.025 189.627 123.618 192.21 126.817 192.21Z" fill="#9BA6FE"/>
<g opacity="0.7">
<g opacity="0.7">
<g opacity="0.7">
<g opacity="0.7">
<path opacity="0.7" d="M132.609 186.441C132.609 186.836 132.571 187.219 132.496 187.594C131.962 184.956 129.622 182.971 126.818 182.971C124.011 182.971 121.671 184.956 121.136 187.594C121.062 187.219 121.024 186.837 121.024 186.441C121.024 183.253 123.618 180.673 126.818 180.673C130.014 180.673 132.609 183.253 132.609 186.441Z" fill="white"/>
</g>
</g>
</g>
</g>
<g opacity="0.35">
<g opacity="0.35">
<g opacity="0.35">
<g opacity="0.35">
<path opacity="0.35" d="M132.608 186.44C132.608 189.625 130.015 192.208 126.817 192.208C123.619 192.208 121.026 189.625 121.026 186.44C121.026 185.703 121.165 185 121.424 184.353C122.258 186.505 124.359 188.028 126.818 188.028C129.276 188.028 131.377 186.505 132.212 184.353C132.469 185 132.608 185.703 132.608 186.44Z" fill="#232859"/>
</g>
</g>
</g>
</g>
<path d="M126.817 193.328C123.004 193.328 119.903 190.238 119.903 186.441C119.903 182.643 123.004 179.554 126.817 179.554C130.63 179.554 133.732 182.643 133.732 186.441C133.732 190.238 130.63 193.328 126.817 193.328ZM126.817 181.79C124.243 181.79 122.148 183.877 122.148 186.441C122.148 189.005 124.243 191.091 126.817 191.091C129.391 191.091 131.486 189.005 131.486 186.441C131.486 183.877 129.391 181.79 126.817 181.79Z" fill="#232859"/>
<path d="M110.404 204.168C109.784 204.168 109.282 203.667 109.282 203.05V189.463L101.947 183.963V169.833C101.947 169.215 102.45 168.715 103.069 168.715C103.689 168.715 104.192 169.216 104.192 169.833V182.847L111.526 188.347V203.05C111.526 203.667 111.024 204.168 110.404 204.168Z" fill="#232859"/>
<path d="M114.542 213.73C121.031 213.73 127.27 211.333 132.143 207.066C138.893 201.155 150.256 194.107 162.798 198.628C167.831 200.441 171.26 203.767 173.6 207.447C179.626 193.541 192.267 192.707 197.738 200.589C197.738 200.589 188.541 244.29 185.544 245.263C181.25 246.656 170.933 245.191 170.933 245.191C170.933 245.191 135.039 240.351 114.542 240.351C94.0456 240.351 58.1518 245.191 58.1518 245.191C58.1518 245.191 47.8343 246.655 43.5403 245.263C40.543 244.29 31.3462 200.589 31.3462 200.589C36.8167 192.707 49.4585 193.541 55.4844 207.447C57.8235 203.766 61.2536 200.441 66.2864 198.628C78.8286 194.107 90.1918 201.155 96.9417 207.066C101.815 211.332 108.054 213.73 114.542 213.73Z" fill="white"/>
<g opacity="0.35">
<path d="M197.74 200.587C197.74 200.587 188.542 244.29 185.545 245.263C181.252 246.657 170.932 245.192 170.932 245.192C170.932 245.192 135.04 240.351 114.542 240.351C94.0477 240.351 58.1515 245.192 58.1515 245.192C58.1515 245.192 47.8349 246.657 43.5434 245.263C40.546 244.29 31.3484 200.587 31.3484 200.587C32.2501 199.29 33.3428 198.228 34.5703 197.423C37.5191 210.237 41.702 226.967 43.5434 227.564C47.8357 228.954 58.1515 227.489 58.1515 227.489C58.1515 227.489 94.0477 217.806 114.542 217.806C135.04 217.806 170.932 227.489 170.932 227.489C170.932 227.489 181.252 228.954 185.545 227.564C187.386 226.967 191.569 210.237 194.518 197.423C195.745 198.229 196.838 199.291 197.74 200.587Z" fill="#232859"/>
</g>
<path d="M49.0744 247.35C46.8233 247.35 44.6241 247.182 43.0773 246.681C42.0225 246.338 41.1356 245.174 39.4711 240.009C38.497 236.986 37.3279 232.777 35.9974 227.498C33.6016 217.993 31.2666 207.333 30.3739 203.192C29.9065 201.023 30.6199 198.781 32.2366 197.34C35.3401 194.573 39.4999 193.507 43.6483 194.417C46.263 194.991 48.807 196.35 51.0054 198.349C52.8262 200.005 54.4092 202.073 55.7289 204.519C58.407 201.115 61.7787 198.667 65.7789 197.226C70.3115 195.592 75.0539 195.267 79.8753 196.262C83.7678 197.065 87.7261 198.729 91.6392 201.21C92.3369 201.653 92.5417 202.574 92.0983 203.269C91.6548 203.964 90.7292 204.168 90.0315 203.726C81.9775 198.619 74.1604 197.376 66.7975 200.03C62.645 201.527 59.2643 204.29 56.7508 208.246C56.4538 208.713 55.9206 208.977 55.3685 208.935C54.8156 208.891 54.3319 208.547 54.1114 208.039C51.5937 202.228 47.5457 198.325 43.0049 197.33C39.8077 196.629 36.6104 197.443 34.2334 199.563C33.4156 200.292 33.0585 201.443 33.3013 202.568C34.1438 206.477 36.3521 216.563 38.6525 225.778C39.9171 230.843 41.0377 234.965 41.9839 238.025C43.3085 242.312 44.0004 243.569 44.2465 243.92C47.628 244.864 55.2336 244.102 57.9421 243.717C57.9454 243.717 57.9487 243.717 57.952 243.716C58.3116 243.667 94.1815 238.862 114.543 238.862C134.906 238.862 170.775 243.667 171.134 243.716C171.138 243.717 171.142 243.717 171.145 243.717C173.854 244.102 181.459 244.864 184.841 243.92C185.083 243.576 185.756 242.355 187.036 238.243C187.96 235.278 189.053 231.283 190.287 226.367C192.488 217.603 194.596 208.067 195.658 203.163C196.006 201.556 195.401 199.909 194.117 198.967C191.668 197.168 188.632 196.631 185.571 197.455C181.184 198.636 177.421 202.395 174.976 208.04C174.756 208.547 174.272 208.892 173.719 208.936C173.165 208.979 172.633 208.713 172.336 208.246C169.823 204.292 166.443 201.527 162.291 200.031C154.863 197.354 146.979 198.64 138.856 203.855C138.161 204.301 137.235 204.101 136.787 203.409C136.339 202.717 136.539 201.795 137.234 201.348C141.171 198.821 145.155 197.12 149.075 196.291C153.944 195.262 158.733 195.577 163.309 197.227C167.309 198.668 170.681 201.117 173.36 204.521C176.171 199.316 180.165 195.821 184.79 194.577C188.694 193.525 192.741 194.251 195.895 196.566C198.124 198.204 199.18 201.039 198.585 203.791C197.461 208.986 195.233 219.052 192.941 228.088C191.642 233.213 190.5 237.295 189.548 240.222C187.924 245.215 187.052 246.345 186.009 246.682C181.458 248.159 171.25 246.744 170.73 246.67C170.167 246.595 134.645 241.844 114.544 241.844C94.4398 241.844 58.9212 246.595 58.3585 246.67C58.0129 246.717 53.4474 247.35 49.0744 247.35Z" fill="#232859"/>
<path d="M182.879 245.263H185.545C188.674 245.263 191.512 243.435 192.787 240.588C196.777 231.688 204.053 212.131 197.238 200.197C197.039 199.848 196.827 199.513 196.602 199.192C196.602 199.192 190.06 193.265 185.359 201.65C180.969 209.483 171.753 242.976 182.879 245.263Z" fill="#AFAFB2"/>
<g opacity="0.7">
<g opacity="0.7">
<g opacity="0.7">
<g opacity="0.7">
<path opacity="0.7" d="M182.952 207.233C183.07 207.045 183.188 206.868 183.302 206.703C189.081 198.318 197.127 204.246 197.127 204.246C197.403 204.567 197.665 204.902 197.907 205.25C198.714 206.399 199.359 207.618 199.863 208.894C199.538 205.759 198.724 202.796 197.238 200.197C197.04 199.849 196.827 199.514 196.603 199.193C196.603 199.193 190.06 193.265 185.36 201.65C184.646 202.92 183.81 204.859 182.952 207.233Z" fill="white"/>
</g>
</g>
</g>
</g>
<path d="M199.828 209.788C199.761 209.788 199.692 209.782 199.623 209.771L183.27 207.052C182.598 206.94 182.144 206.307 182.255 205.636C182.367 204.967 183.004 204.515 183.676 204.626L200.029 207.345C200.701 207.456 201.155 208.09 201.043 208.76C200.943 209.363 200.42 209.788 199.828 209.788Z" fill="#232859"/>
<path d="M199.724 218.588C199.669 218.588 199.614 218.585 199.558 218.576L180.428 216.015C179.752 215.925 179.278 215.306 179.369 214.633C179.459 213.96 180.08 213.488 180.757 213.579L199.887 216.14C200.562 216.23 201.036 216.849 200.946 217.522C200.863 218.14 200.333 218.588 199.724 218.588Z" fill="#232859"/>
<path d="M198.037 227.207C197.987 227.207 197.936 227.204 197.885 227.198L178.466 224.831C177.789 224.748 177.308 224.135 177.39 223.462C177.473 222.788 178.088 222.308 178.765 222.391L198.185 224.758C198.861 224.841 199.342 225.454 199.26 226.127C199.184 226.751 198.651 227.207 198.037 227.207Z" fill="#232859"/>
<path d="M194.957 236.607C194.92 236.607 194.882 236.606 194.844 236.603L177.482 235.042C176.804 234.982 176.303 234.383 176.364 233.707C176.425 233.031 177.026 232.532 177.704 232.594L195.066 234.154C195.745 234.215 196.246 234.813 196.184 235.489C196.127 236.127 195.588 236.607 194.957 236.607Z" fill="#232859"/>
<g opacity="0.35">
<g opacity="0.35">
<g opacity="0.35">
<g opacity="0.35">
<path opacity="0.35" d="M182.878 245.263H185.544C188.674 245.263 191.511 243.435 192.786 240.588C193.817 238.281 195.072 235.264 196.245 231.845C194.645 234.49 191.394 236.167 187.824 236.167H184.646C180.124 235.387 178.423 230.97 178.355 225.181C176.827 234.953 177.246 244.105 182.878 245.263Z" fill="#232859"/>
</g>
</g>
</g>
</g>
<path d="M185.545 246.492H182.879C182.795 246.492 182.712 246.484 182.63 246.467C180.475 246.023 178.847 244.632 177.789 242.33C175.297 236.903 176.508 227.449 177.964 220.474C179.743 211.95 182.489 204.25 184.283 201.051C185.931 198.109 188.009 196.415 190.456 196.017C194.209 195.408 197.304 198.165 197.434 198.282C197.502 198.344 197.563 198.413 197.615 198.488C197.861 198.839 198.096 199.21 198.312 199.589C201.427 205.044 202.088 212.505 200.277 221.764C198.804 229.292 196.004 236.428 193.915 241.089C192.444 244.371 189.16 246.492 185.545 246.492ZM183.013 244.034H185.545C188.186 244.034 190.587 242.485 191.659 240.088C193.697 235.544 196.425 228.595 197.853 221.296C199.549 212.63 198.98 205.736 196.166 200.805C196.013 200.536 195.849 200.274 195.679 200.023C195.216 199.647 193.116 198.068 190.839 198.446C189.179 198.722 187.698 200.002 186.438 202.249C184.778 205.211 182.091 212.781 180.381 220.975C178.43 230.326 178.307 237.547 180.035 241.308C180.736 242.835 181.711 243.728 183.013 244.034Z" fill="#232859"/>
<path d="M46.2077 245.263H43.542C40.4122 245.263 37.5745 243.435 36.3 240.588C32.3096 231.688 25.034 212.131 31.8489 200.197C32.0472 199.848 32.2595 199.513 32.4841 199.192C32.4841 199.192 39.0267 193.265 43.7271 201.65C48.1174 209.483 57.3323 242.976 46.2077 245.263Z" fill="#AFAFB2"/>
<g opacity="0.7">
<g opacity="0.7">
<g opacity="0.7">
<g opacity="0.7">
<path opacity="0.7" d="M46.1332 207.233C46.0156 207.045 45.8979 206.868 45.7835 206.703C40.0045 198.318 31.9587 204.246 31.9587 204.246C31.683 204.567 31.4206 204.902 31.1787 205.25C30.3716 206.399 29.7265 207.618 29.2222 208.894C29.548 205.759 30.3617 202.796 31.8476 200.197C32.0459 199.849 32.2582 199.514 32.4828 199.193C32.4828 199.193 39.0254 193.265 43.7258 201.65C44.4383 202.92 45.2759 204.859 46.1332 207.233Z" fill="white"/>
</g>
</g>
</g>
</g>
<path d="M29.2577 209.788C28.6653 209.788 28.1428 209.362 28.0416 208.761C27.9297 208.091 28.3831 207.458 29.0561 207.346L45.4093 204.627C46.0815 204.515 46.7175 204.967 46.8294 205.637C46.9413 206.307 46.4879 206.94 45.8149 207.052L29.4617 209.771C29.3934 209.783 29.3251 209.788 29.2577 209.788Z" fill="#232859"/>
<path d="M29.3613 218.588C28.7525 218.588 28.2226 218.14 28.1395 217.523C28.049 216.85 28.5229 216.231 29.1984 216.141L48.3293 213.579C49.0056 213.488 49.6259 213.96 49.7173 214.633C49.8078 215.306 49.3339 215.925 48.6584 216.015L29.5275 218.577C29.4715 218.585 29.4164 218.588 29.3613 218.588Z" fill="#232859"/>
<path d="M31.0494 227.207C30.4348 227.207 29.9025 226.751 29.826 226.127C29.7429 225.454 30.2242 224.841 30.9013 224.758L50.321 222.39C50.9973 222.309 51.6127 222.787 51.6958 223.462C51.7789 224.135 51.2976 224.748 50.6205 224.831L31.2008 227.198C31.1498 227.205 31.0988 227.207 31.0494 227.207Z" fill="#232859"/>
<path d="M34.1293 236.607C33.4974 236.607 32.9593 236.127 32.9017 235.489C32.8409 234.813 33.3411 234.215 34.0199 234.154L51.3818 232.594C52.0614 232.533 52.6604 233.031 52.7221 233.707C52.783 234.383 52.2827 234.981 51.6039 235.042L34.242 236.603C34.2042 236.606 34.1663 236.607 34.1293 236.607Z" fill="#232859"/>
<g opacity="0.35">
<g opacity="0.35">
<g opacity="0.35">
<g opacity="0.35">
<path opacity="0.35" d="M46.207 245.263H43.5413C40.4115 245.263 37.5738 243.435 36.2993 240.588C35.2676 238.281 34.0129 235.264 32.8396 231.845C34.4399 234.49 37.6914 236.167 41.2614 236.167H44.4389C48.9608 235.387 50.6623 230.97 50.7297 225.181C52.2584 234.953 51.838 244.105 46.207 245.263Z" fill="#232859"/>
</g>
</g>
</g>
</g>
<path d="M46.2072 246.492H43.5415C39.9271 246.492 36.6418 244.371 35.1723 241.088C33.0834 236.429 30.2827 229.293 28.8099 221.765C26.999 212.506 27.6597 205.045 30.7747 199.589C30.9911 199.21 31.2256 198.84 31.4707 198.489C31.5234 198.413 31.5843 198.345 31.6526 198.283C31.7826 198.165 34.877 195.408 38.6304 196.018C41.0773 196.416 43.1548 198.109 44.8036 201.051C46.5972 204.251 49.3436 211.95 51.1224 220.475C52.5779 227.45 53.789 236.904 51.2968 242.331C50.2396 244.633 48.6113 246.024 46.4565 246.467C46.3742 246.484 46.2903 246.492 46.2072 246.492ZM33.4067 200.024C33.2364 200.274 33.0735 200.536 32.9205 200.804C30.105 205.735 29.5364 212.629 31.2321 221.296C32.6605 228.596 35.3879 235.544 37.4259 240.088C38.4996 242.486 40.8996 244.034 43.5407 244.034H46.0723C47.3747 243.729 48.3505 242.836 49.0515 241.308C50.7785 237.547 50.6559 230.325 48.7051 220.974C46.9954 212.78 44.3083 205.211 42.648 202.249C41.3883 200.002 39.9073 198.722 38.247 198.446C35.9745 198.069 33.8749 199.643 33.4067 200.024Z" fill="#232859"/>
<path d="M76.2984 244.141C76.1232 244.141 75.9454 244.1 75.7792 244.013C75.2296 243.727 75.0174 243.051 75.3053 242.504C79.9926 233.584 80.0617 223.552 75.511 212.688C72.0785 204.494 67.1633 198.887 67.1139 198.831C66.7042 198.368 66.7486 197.662 67.2135 197.253C67.6783 196.845 68.3875 196.888 68.7973 197.352C69.0071 197.588 73.9757 203.246 77.5564 211.764C79.6693 216.789 80.8475 221.763 81.0597 226.546C81.3263 232.56 80.0593 238.278 77.2939 243.54C77.0932 243.923 76.7024 244.141 76.2984 244.141Z" fill="#232859"/>
<path d="M153.242 244.141C152.838 244.141 152.448 243.923 152.247 243.541C149.482 238.278 148.214 232.561 148.481 226.547C148.693 221.764 149.872 216.79 151.984 211.764C155.565 203.247 160.534 197.588 160.743 197.352C161.154 196.889 161.863 196.845 162.328 197.254C162.793 197.662 162.837 198.368 162.427 198.831C162.377 198.887 157.462 204.494 154.03 212.688C149.479 223.552 149.548 233.584 154.235 242.504C154.523 243.051 154.31 243.726 153.762 244.013C153.595 244.1 153.418 244.141 153.242 244.141Z" fill="#232859"/>
<g opacity="0.35">
<path d="M151.74 136.726C150.445 138.202 149.084 139.603 147.665 140.919C144.298 144.042 140.607 146.7 136.66 148.806C129.991 152.369 122.594 154.367 114.803 154.404C107.192 154.437 99.9474 152.596 93.3809 149.249C89.0812 147.054 85.0735 144.217 81.4476 140.837C79.6441 139.152 77.9336 137.337 76.3284 135.403C79.236 134.509 82.1247 133.472 84.7699 132.447C88.0552 124.565 91.8868 116.492 96.3552 108.419H132.73C136.424 115.094 139.683 121.765 142.557 128.336C145.296 129.927 148.451 132.924 151.74 136.726Z" fill="#232859"/>
</g>
<path d="M170.09 100.733C169.456 100.801 168.888 100.345 168.82 99.714L165.269 66.8088C165.201 66.1778 165.659 65.6115 166.293 65.5435C172.938 64.8322 178.904 69.6212 179.618 76.2401L180.83 87.4612C181.545 94.0801 176.735 100.022 170.09 100.733Z" fill="white"/>
<path d="M169.964 101.024C169.638 101.024 169.323 100.914 169.065 100.706C168.766 100.466 168.579 100.125 168.538 99.7444L164.987 66.8392C164.946 66.4589 165.057 66.0852 165.298 65.7878C165.539 65.4903 165.882 65.3035 166.264 65.2625C173.055 64.5356 179.173 69.4467 179.903 76.2107L181.113 87.4318C181.467 90.7081 180.518 93.9253 178.441 96.4911C176.365 99.0569 173.41 100.664 170.121 101.016L170.09 100.734L170.121 101.016C170.069 101.021 170.016 101.024 169.964 101.024ZM167.596 65.7566C167.175 65.7566 166.751 65.7788 166.324 65.8247C166.093 65.8492 165.886 65.9623 165.74 66.1418C165.595 66.3221 165.528 66.5474 165.553 66.7777L169.103 99.683C169.128 99.9132 169.241 100.12 169.422 100.265C169.603 100.41 169.829 100.476 170.061 100.452C173.199 100.116 176.018 98.5824 177.999 96.1346C179.981 93.6869 180.886 90.6171 180.548 87.4908L179.338 76.2697C178.686 70.2425 173.551 65.7566 167.596 65.7566Z" fill="#232859"/>
<g opacity="0.35">
<g opacity="0.35">
<g opacity="0.35">
<g opacity="0.35">
<path opacity="0.35" d="M180.262 82.1993L180.832 87.462C181.545 94.0785 176.737 100.022 170.091 100.736C169.457 100.805 168.889 100.344 168.82 99.714L167.873 90.9669C168.094 91.3463 168.525 91.5791 168.99 91.5332L169.773 91.4471C175.024 90.8858 179.131 87.0547 180.262 82.1993Z" fill="#232859"/>
</g>
</g>
</g>
</g>
<path d="M169.963 102.318C169.341 102.318 168.742 102.108 168.25 101.714C167.681 101.257 167.325 100.607 167.247 99.883L163.696 66.9778C163.618 66.2542 163.828 65.5429 164.286 64.9758C164.745 64.4087 165.398 64.0539 166.124 63.976C173.626 63.1729 180.387 68.5995 181.193 76.0723L182.404 87.2934C182.794 90.913 181.746 94.4679 179.452 97.3033C177.159 100.138 173.894 101.914 170.259 102.302C170.161 102.312 170.061 102.318 169.963 102.318ZM169.923 99.166H169.922C169.922 99.166 169.922 99.166 169.923 99.166ZM166.892 67.0745L170.348 99.1127C172.971 98.7259 175.316 97.3918 176.989 95.3243C178.752 93.1453 179.558 90.4131 179.257 87.6302L178.047 76.4091C177.442 70.8072 172.486 66.7008 166.892 67.0745Z" fill="#232859"/>
<path d="M57.2451 77.2153C57.8786 77.1473 58.4471 77.6038 58.5154 78.2348L62.0656 111.14C62.1339 111.771 61.6757 112.337 61.0421 112.405C54.3967 113.117 48.4308 108.328 47.7167 101.709L46.5064 90.4876C45.7906 83.8687 50.5996 77.9266 57.2451 77.2153Z" fill="white"/>
<path d="M59.7391 112.759C53.4976 112.759 48.1143 108.057 47.433 101.739L46.2227 90.5179C45.493 83.754 50.4238 77.6603 57.2149 76.9335L57.2453 77.2153L57.2149 76.9335C58.0022 76.849 58.7131 77.4194 58.7978 78.2045L62.3481 111.11C62.4328 111.895 61.8602 112.602 61.072 112.686C60.6252 112.735 60.1793 112.759 59.7391 112.759ZM57.3687 77.4915C57.3374 77.4915 57.307 77.4932 57.2749 77.4964C50.7957 78.1897 46.0911 84.0039 46.788 90.4573L47.9983 101.678C48.6943 108.132 54.531 112.818 61.0111 112.124C61.4875 112.073 61.8338 111.646 61.7828 111.171L58.2326 78.2659C58.1849 77.8218 57.8064 77.4915 57.3687 77.4915Z" fill="#232859"/>
<g opacity="0.35">
<g opacity="0.35">
<g opacity="0.35">
<g opacity="0.35">
<path opacity="0.35" d="M61.0839 102.011L62.0679 111.14C62.137 111.771 61.6746 112.337 61.0419 112.405C57.5534 112.777 54.2492 111.636 51.7957 109.507C49.58 107.584 48.0579 104.852 47.7181 101.71L47.208 96.9821C49.5422 100.929 54.0567 103.368 58.9291 102.848L60.1344 102.718C60.5738 102.671 60.9218 102.388 61.0839 102.011Z" fill="#232859"/>
</g>
</g>
</g>
</g>
<path d="M59.7383 114.052C52.8419 114.052 46.895 108.858 46.1422 101.877L44.9319 90.6556C44.1256 83.1828 49.5739 76.45 57.0767 75.6469C58.5758 75.4863 59.9284 76.5712 60.0897 78.0651L63.6399 110.971C63.8011 112.466 62.7118 113.812 61.2111 113.972C60.7166 114.026 60.2246 114.052 59.7383 114.052ZM56.9878 78.8371C51.4424 79.6566 47.4751 84.7176 48.079 90.3196L49.2893 101.541C49.894 107.143 54.8503 111.248 60.4443 110.875L56.9878 78.8371Z" fill="#232859"/>
<path d="M113.673 145.37C144.945 145.37 170.296 120.121 170.296 88.9741C170.296 57.8273 144.945 32.5778 113.673 32.5778C82.4018 32.5778 57.051 57.8273 57.051 88.9741C57.051 120.121 82.4018 145.37 113.673 145.37Z" fill="white"/>
<path d="M113.619 145.655C106.676 145.655 99.8943 144.415 93.4282 141.961C86.5524 139.351 80.3232 135.485 74.9119 130.471C69.5006 125.457 65.1811 119.547 62.0719 112.905C58.8533 106.028 57.0811 98.6644 56.8038 91.0178C56.5265 83.3713 57.7615 75.8993 60.4741 68.8092C63.0938 61.9608 66.9756 55.7566 72.0092 50.3669C77.0429 44.9772 82.9783 40.6741 89.6476 37.5773C96.5522 34.3716 103.946 32.6064 111.623 32.3302C119.3 32.0541 126.802 33.2841 133.92 35.9859C140.796 38.5951 147.025 42.4614 152.437 47.475C157.848 52.4893 162.167 58.3994 165.277 65.0413C168.495 71.9183 170.268 79.2821 170.545 86.9286C170.822 94.5752 169.587 102.047 166.874 109.137C164.255 115.986 160.373 122.19 155.339 127.58C150.304 132.969 144.37 137.271 137.702 140.368C130.797 143.574 123.404 145.339 115.727 145.615C115.022 145.642 114.319 145.655 113.619 145.655ZM113.7 32.8596C113.016 32.8596 112.333 32.8719 111.642 32.8965C80.598 34.0126 56.2525 60.0761 57.3723 90.9965C57.9145 105.975 64.281 119.847 75.2986 130.056C85.8061 139.793 99.3463 145.087 113.623 145.088C114.316 145.088 115.008 145.075 115.704 145.05C130.743 144.51 144.671 138.169 154.921 127.195C165.171 116.222 170.517 101.929 169.975 86.9508C168.88 56.717 143.834 32.8596 113.7 32.8596Z" fill="#232859"/>
<g opacity="0.35">
<g opacity="0.35">
<g opacity="0.35">
<g opacity="0.35">
<path opacity="0.35" d="M169.435 79.1584C169.888 81.6939 170.165 84.2916 170.261 86.941C171.384 118.067 146.966 144.21 115.715 145.335C84.4638 146.454 58.2161 122.133 57.0864 91.0073C57.0535 90.1124 57.042 89.2159 57.0527 88.3317C61.8609 115.63 86.2616 135.904 114.855 134.877C145.207 133.785 169.111 109.095 169.435 79.1584Z" fill="#232859"/>
</g>
</g>
</g>
</g>
<path d="M113.618 146.948C106.517 146.948 99.5805 145.679 92.9663 143.169C85.9342 140.5 79.5619 136.546 74.028 131.418C68.4941 126.29 64.0759 120.244 60.8959 113.451C57.6032 106.417 55.7907 98.8839 55.5076 91.0637C55.2246 83.2434 56.4875 75.6002 59.2627 68.3478C61.9425 61.3438 65.9123 54.9969 71.0611 49.4851C76.21 43.9733 82.2778 39.5719 89.0993 36.4055C96.1619 33.1259 103.725 31.3206 111.576 31.0387C119.429 30.7568 127.102 32.0147 134.383 34.7788C141.415 37.4479 147.788 41.4018 153.322 46.5301C158.856 51.6584 163.274 57.7036 166.454 64.4971C169.746 71.5315 171.559 79.0641 171.842 86.8844C172.125 94.7046 170.862 102.348 168.087 109.6C165.407 116.604 161.437 122.951 156.289 128.463C151.14 133.975 145.07 138.375 138.249 141.543C131.187 144.822 123.624 146.627 115.772 146.909C115.053 146.935 114.334 146.948 113.618 146.948ZM113.701 34.1536C113.032 34.1536 112.365 34.1659 111.691 34.1896C81.3613 35.2795 57.5769 60.7423 58.6712 90.9506C59.201 105.584 65.4211 119.136 76.1845 129.11C86.4501 138.623 99.6776 143.795 113.626 143.795C114.302 143.795 114.98 143.783 115.66 143.758C130.352 143.231 143.958 137.035 153.972 126.315C163.987 115.595 169.21 101.632 168.679 86.9983C167.609 57.4603 143.139 34.1536 113.701 34.1536Z" fill="#232859"/>
<path d="M170.132 88.3946C170.699 99.4158 167.633 109.832 161.925 118.611C157.646 125.193 139.285 137.267 115.917 138.669C94.2491 139.968 73.9343 129.463 69.0027 123.351C62.4239 115.198 58.306 105.149 57.7391 94.1277C56.2392 64.9617 80.7764 51.5871 111.815 50.0038C142.852 48.4206 168.633 59.2287 170.132 88.3946Z" fill="#7A89FE"/>
<path d="M112.155 139.864C101.381 139.864 92.011 137.19 85.7909 134.8C77.9146 131.774 70.991 127.547 68.1533 124.03C61.1887 115.399 57.2114 105.078 56.6511 94.1827C56.2792 86.9533 57.4764 80.3934 60.2071 74.6849C62.7782 69.3124 66.7217 64.6578 71.9298 60.8489C81.4442 53.8899 95.2164 49.7654 111.757 48.9222C128.299 48.079 142.422 50.78 152.6 56.7343C158.171 59.9933 162.572 64.2226 165.68 69.3058C168.983 74.7062 170.846 81.1104 171.217 88.3398C171.778 99.2347 168.879 109.906 162.837 119.2C160.327 123.062 154.091 127.795 146.565 131.552C139.954 134.852 129.281 138.953 115.98 139.75C114.689 139.827 113.412 139.864 112.155 139.864ZM117.598 50.9373C115.725 50.9373 113.816 50.9865 111.869 51.0856C95.7537 51.9076 82.3888 55.8877 73.2174 62.5952C62.9782 70.0843 58.1354 80.6752 58.824 94.072C59.3605 104.509 63.1732 114.399 69.849 122.673C71.8352 125.134 77.4069 129.258 86.5742 132.779C93.3183 135.37 103.871 138.307 115.85 137.588C128.783 136.812 139.163 132.823 145.592 129.614C154.207 125.314 159.283 120.682 161.013 118.023C166.805 109.114 169.583 98.8873 169.047 88.4504C168.358 75.0536 162.454 65.011 151.5 58.6027C142.873 53.5563 131.235 50.9373 117.598 50.9373Z" fill="#232859"/>
<g opacity="0.5">
<g opacity="0.5">
<g opacity="0.5">
<g opacity="0.5">
<path d="M158.859 86.2866C159.566 80.8198 156.915 75.9746 152.938 75.4645C148.961 74.9545 145.164 78.9727 144.457 84.4396C143.75 89.9064 146.401 94.7516 150.379 95.2616C154.356 95.7717 158.153 91.7534 158.859 86.2866Z" fill="white"/>
</g>
</g>
</g>
</g>
<g opacity="0.5">
<g opacity="0.5">
<g opacity="0.5">
<g opacity="0.5">
<path d="M147.605 106.607C148.274 104.166 147.113 101.724 145.01 101.152C142.908 100.579 140.66 102.094 139.991 104.534C139.321 106.975 140.483 109.417 142.585 109.989C144.688 110.561 146.935 109.047 147.605 106.607Z" fill="white"/>
</g>
</g>
</g>
</g>
<g opacity="0.35">
<path d="M157.803 61.7429C165.009 67.9218 169.528 76.6795 170.132 88.3931C170.699 99.4167 167.631 109.832 161.927 118.611C157.646 125.193 139.283 137.267 115.915 138.671C107.664 139.169 99.612 137.951 92.5264 135.913C121.214 133.577 143.575 118.767 148.882 110.603C156.128 99.4609 160.018 86.2395 159.297 72.2543C159.108 68.5159 158.595 65.0159 157.803 61.7429Z" fill="#232859"/>
</g>
<path d="M60.6917 70.5579C60.3724 70.5579 60.0516 70.4587 59.7768 70.253C59.1301 69.7679 58.9812 68.8689 59.4213 68.206C61.7711 64.361 64.7718 60.8471 68.3393 57.7626C71.813 54.76 75.8527 52.1385 80.3458 49.971C84.7451 47.8494 89.6076 46.1498 94.7976 44.9189C99.9407 43.6996 105.431 42.9342 111.118 42.6441C116.711 42.3589 122.191 42.5515 127.407 43.2153C132.67 43.8856 137.674 45.0386 142.279 46.6407C146.991 48.2804 151.302 50.398 155.094 52.9342C158.991 55.5418 162.362 58.6083 165.115 62.0493C165.595 62.5795 165.645 63.3916 165.195 63.9816C164.686 64.6486 163.731 64.7781 163.061 64.2717L162.902 64.1537L162.782 64.0013C152.588 51.2043 133.814 44.524 111.273 45.6737C88.608 46.83 70.6487 55.6311 61.9999 69.8203L61.9604 69.8851L61.9085 69.9531C61.6107 70.3489 61.1541 70.5579 60.6917 70.5579Z" fill="#232859"/>
<g opacity="0.5">
<g opacity="0.5">
<g opacity="0.5">
<g opacity="0.5">
<path d="M71.2512 110.834C71.2512 110.834 60.7026 82.5248 75.6818 70.2646C90.661 58.0044 113.062 56.9088 112.612 58.3658C112.612 58.3658 88.1228 65.61 79.4237 85.6298C72.7158 101.068 71.2512 110.834 71.2512 110.834Z" fill="white"/>
</g>
</g>
</g>
</g>
<path d="M164.99 248.508H64.5666C61.3151 248.508 58.679 245.882 58.679 242.644C58.679 240.778 60.1978 239.265 62.0712 239.265H167.485C169.358 239.265 170.877 240.778 170.877 242.644C170.877 245.883 168.241 248.508 164.99 248.508Z" fill="#E6E9FA"/>
<g opacity="0.3">
<g opacity="0.3">
<g opacity="0.3">
<g opacity="0.3">
<path opacity="0.3" d="M170.876 242.645C170.876 243.285 170.771 243.901 170.58 244.479C170.053 243.297 168.867 242.477 167.486 242.477H62.072C61.1365 242.477 60.2875 242.853 59.6737 243.469C59.3816 243.76 59.1422 244.099 58.9743 244.479C58.7834 243.902 58.679 243.287 58.679 242.645C58.679 241.714 59.0566 240.868 59.6745 240.257C60.2883 239.642 61.1374 239.265 62.0728 239.265H167.486C169.36 239.264 170.876 240.777 170.876 242.645Z" fill="white"/>
</g>
</g>
</g>
</g>
<g opacity="0.35">
<g opacity="0.35">
<g opacity="0.35">
<g opacity="0.35">
<path opacity="0.35" d="M170.875 242.645C170.875 244.262 170.217 245.731 169.15 246.789C168.087 247.851 166.613 248.507 164.989 248.507H64.5681C61.3166 248.507 58.678 245.883 58.678 242.645C58.678 242.022 58.8466 241.437 59.1453 240.934C60.0355 243.032 62.1311 244.508 64.5673 244.508H164.989C166.613 244.508 168.087 243.853 169.149 242.79C169.681 242.26 170.111 241.631 170.407 240.934C170.708 241.437 170.875 242.022 170.875 242.645Z" fill="#232859"/>
</g>
</g>
</g>
</g>
<path d="M164.99 249.999H64.5671C60.4953 249.999 57.1829 246.7 57.1829 242.645C57.1829 239.96 59.3763 237.775 62.0717 237.775H167.486C170.181 237.775 172.374 239.96 172.374 242.645C172.374 246.699 169.062 249.999 164.99 249.999ZM62.0709 240.757C61.026 240.757 60.1752 241.603 60.1752 242.645C60.1752 245.056 62.1449 247.018 64.5663 247.018H164.99C167.412 247.018 169.381 245.056 169.381 242.645C169.381 241.604 168.531 240.757 167.486 240.757H62.0709Z" fill="#232859"/>
<path d="M176.739 173.244L166.917 239.263H62.6412L62.2858 236.875L52.8141 173.244C52.504 171.154 54.1314 169.279 56.2492 169.279H173.303C175.426 169.279 177.049 171.154 176.739 173.244Z" fill="#FF66AC"/>
<path d="M176.739 173.244L166.917 239.263H62.6412L62.2858 236.875L52.8141 173.244C52.504 171.154 54.1314 169.279 56.2492 169.279H173.303C175.426 169.279 177.049 171.154 176.739 173.244Z" fill="#E6E9FA"/>
<g opacity="0.5">
<g opacity="0.5">
<g opacity="0.5">
<g opacity="0.5">
<path opacity="0.5" d="M56.517 177.342C56.2068 175.252 57.8342 173.377 59.952 173.377H176.72L176.74 173.245C177.05 171.155 175.427 169.28 173.305 169.28H56.2504C54.1326 169.28 52.5052 171.155 52.8154 173.245L62.2862 236.876L62.6416 239.264H65.7344L56.517 177.342Z" fill="white"/>
</g>
</g>
</g>
</g>
<g opacity="0.35">
<g opacity="0.35">
<g opacity="0.35">
<g opacity="0.35">
<path opacity="0.35" d="M170.013 169.279H161.794C164.911 180.651 163.191 206.332 143.084 219.753C117.844 236.602 72.3548 236.494 62.6973 236.875L63.0527 239.263H163.626L173.448 173.244C173.759 171.154 172.135 169.279 170.013 169.279Z" fill="#232859"/>
</g>
</g>
</g>
</g>
<path d="M168.207 240.757H61.35L51.3362 173.462C51.1239 172.037 51.5443 170.595 52.4889 169.504C53.4334 168.413 54.8049 167.788 56.2505 167.788H173.306C174.753 167.788 176.124 168.413 177.068 169.504C178.013 170.595 178.433 172.037 178.221 173.462L168.207 240.757ZM63.9326 237.774H165.624L175.26 173.024C175.345 172.45 175.182 171.891 174.801 171.451C174.42 171.011 173.89 170.769 173.306 170.769H56.2505C55.6672 170.769 55.1365 171.012 54.7556 171.451C54.3746 171.891 54.2117 172.45 54.2973 173.024L63.9326 237.774Z" fill="#232859"/>
<g opacity="0.3">
<g opacity="0.3">
<g opacity="0.3">
<g opacity="0.3">
<path opacity="0.3" d="M70.9418 223.839C66.986 215.155 64.1055 200.329 64.7546 191.604C65.4038 182.88 70.4844 185.549 72.0591 196.725C76.2494 226.469 72.7075 227.717 70.9418 223.839Z" fill="white"/>
</g>
</g>
</g>
</g>
<path d="M128.402 196.781C128.529 195.667 128.678 194.54 128.458 193.406C128.36 193.283 128.27 193.157 128.172 193.034C127.848 192.918 127.533 192.766 127.196 192.682C124.823 192.071 122.417 191.83 119.974 192.04C116.787 192.313 113.862 193.292 111.347 195.31C110.436 196.038 109.606 196.86 108.756 197.657C108.528 197.873 108.353 197.964 108.033 197.818C107.28 197.477 106.469 197.324 105.645 197.283C103.436 197.183 101.465 197.895 99.6258 199.044C97.633 200.295 96.027 201.966 94.5312 203.755C93.8944 204.513 94.1421 205.358 95.0899 205.676C95.688 205.871 96.2862 206.062 96.8843 206.257C98.3176 206.719 99.7475 207.177 101.177 207.638C101.173 207.683 101.178 207.705 101.171 207.728C101.159 207.755 101.147 207.787 101.127 207.814C100.531 208.578 100.676 209.285 101.304 209.948C101.372 210.022 101.43 210.11 101.489 210.189C101.818 210.62 102.155 211.056 102.504 211.505C102.027 211.872 101.559 212.183 101.145 212.559C100.936 212.749 100.752 213.024 100.673 213.297C100.539 213.737 100.768 214.187 101.161 214.418C101.578 214.668 102.008 214.657 102.396 214.378C102.889 214.029 103.359 213.651 103.861 213.27C104.334 213.891 104.782 214.478 105.232 215.059C105.748 215.72 106.103 215.833 106.903 215.613C107.049 215.568 107.193 215.536 107.365 215.495C107.376 215.665 107.389 215.802 107.397 215.93C107.499 217.988 107.593 220.05 107.706 222.103C107.758 223.076 108.53 223.536 109.413 223.119C110.21 222.745 111.006 222.348 111.788 221.926C113.589 220.95 115.228 219.755 116.535 218.166C118.172 216.167 119.078 213.933 118.654 211.295C118.636 211.191 118.723 211.013 118.813 210.96C119.616 210.444 120.441 209.961 121.245 209.442C123.061 208.263 124.522 206.73 125.664 204.9C127.215 202.411 128.072 199.68 128.402 196.781ZM102.359 205.689C100.704 205.152 98.989 204.595 97.2266 204.024C99.0474 202.096 100.974 200.413 103.569 199.702C104.691 199.395 105.987 199.421 106.752 199.731C105.299 201.706 103.842 203.681 102.359 205.689ZM116.276 214.16C115.856 215.496 115.053 216.585 114.064 217.555C112.834 218.747 111.404 219.637 109.857 220.448C109.764 218.555 109.668 216.703 109.575 214.89C111.914 213.983 114.201 213.099 116.5 212.209C116.589 212.84 116.48 213.509 116.276 214.16ZM124.913 201.486C124.161 203.255 123.173 204.866 121.765 206.2C120.678 207.224 119.445 208.045 118.147 208.775C114.627 210.754 110.855 212.118 106.998 213.272C106.809 213.326 106.694 213.316 106.57 213.144C106.301 212.763 105.999 212.396 105.714 212.02C105.695 211.999 105.689 211.963 105.662 211.896C105.76 211.818 105.866 211.74 105.972 211.659C108.173 209.975 110.384 208.298 112.586 206.611C113.222 206.13 113.25 205.304 112.661 204.827C112.249 204.491 111.707 204.496 111.232 204.852C109.908 205.858 108.586 206.865 107.265 207.875C106.279 208.626 105.302 209.373 104.278 210.155C103.927 209.698 103.588 209.28 103.282 208.841C103.23 208.763 103.283 208.564 103.354 208.467C104.527 206.723 105.69 204.97 106.911 203.257C108.119 201.555 109.492 199.984 111.003 198.541C112.419 197.178 113.954 195.975 115.81 195.258C116.999 194.797 118.227 194.483 119.495 194.348C119.61 194.332 119.777 194.446 119.858 194.552C121.148 196.212 122.421 197.875 123.699 199.541C124.082 200.037 124.461 200.542 124.856 201.032C124.974 201.18 124.989 201.306 124.913 201.486ZM125.678 199.163C124.404 197.501 123.16 195.884 121.914 194.26C121.916 194.223 121.927 194.18 121.933 194.14C123.383 194.313 124.837 194.49 126.306 194.665C126.278 196.241 126.045 197.684 125.678 199.163Z" fill="#232859"/>
<path d="M124.858 201.032C124.462 200.542 124.084 200.036 123.701 199.54C122.424 197.874 121.15 196.211 119.86 194.551C119.779 194.445 119.612 194.331 119.497 194.347C118.229 194.482 117.001 194.796 115.811 195.258C113.955 195.975 112.421 197.178 111.005 198.54C109.494 199.983 108.121 201.554 106.913 203.256C105.692 204.97 104.529 206.723 103.356 208.466C103.285 208.563 103.232 208.762 103.284 208.84C103.589 209.28 103.928 209.697 104.28 210.154C105.304 209.372 106.281 208.624 107.267 207.874C108.588 206.864 109.91 205.857 111.234 204.851C111.709 204.496 112.251 204.491 112.663 204.826C113.252 205.304 113.225 206.13 112.588 206.611C110.386 208.297 108.175 209.975 105.974 211.658C105.868 211.739 105.761 211.817 105.663 211.895C105.691 211.963 105.697 211.998 105.716 212.019C106.001 212.395 106.303 212.762 106.572 213.143C106.696 213.316 106.811 213.325 107 213.271C110.857 212.117 114.629 210.753 118.149 208.774C119.446 208.045 120.68 207.223 121.767 206.199C123.174 204.865 124.162 203.254 124.915 201.485C124.989 201.306 124.975 201.18 124.858 201.032ZM120.995 203.569C119.312 204.832 116.931 204.523 115.667 202.87C114.395 201.219 114.716 198.849 116.383 197.569C118.02 196.314 120.402 196.638 121.678 198.29C122.939 199.931 122.631 202.336 120.995 203.569Z" fill="white"/>
<path d="M125.677 199.162C124.403 197.503 123.159 195.885 121.914 194.26C121.918 194.222 121.926 194.182 121.932 194.14C123.383 194.314 124.837 194.491 126.308 194.666C126.28 196.239 126.044 197.684 125.677 199.162Z" fill="#FB8477"/>
<path d="M106.752 199.732C105.297 201.704 103.841 203.681 102.359 205.69C100.702 205.15 98.9869 204.595 97.2253 204.024C99.0478 202.095 100.974 200.411 103.569 199.702C104.69 199.394 105.984 199.421 106.752 199.732Z" fill="#FB8477"/>
<path d="M114.062 217.555C112.833 218.748 111.404 219.639 109.856 220.448C109.762 218.557 109.667 216.705 109.574 214.89C111.913 213.984 114.2 213.101 116.502 212.208C116.59 212.841 116.479 213.508 116.277 214.161C115.857 215.498 115.054 216.585 114.062 217.555Z" fill="#FB8477"/>
<path d="M121.677 198.29C120.401 196.638 118.019 196.315 116.382 197.569C114.715 198.85 114.394 201.219 115.666 202.87C116.93 204.523 119.311 204.832 120.994 203.569C122.631 202.336 122.939 199.931 121.677 198.29ZM119.86 202.175C119.008 202.818 117.755 202.648 117.092 201.8C116.405 200.926 116.592 199.641 117.501 198.969C118.353 198.333 119.629 198.517 120.27 199.37C120.94 200.256 120.755 201.501 119.86 202.175Z" fill="#232859"/>
<path d="M119.859 202.175C119.007 202.818 117.754 202.648 117.089 201.799C116.405 200.926 116.59 199.641 117.499 198.969C118.353 198.335 119.627 198.517 120.268 199.368C120.938 200.256 120.756 201.502 119.859 202.175Z" fill="#9BA6FE"/>
<path d="M176.222 176.728C176.222 176.728 168.141 172.908 160.552 176.334C153.284 179.615 148.143 202.975 157.559 208.893C163.37 212.545 167.326 209.319 170.613 210.266C175.49 211.671 185.495 187.618 176.222 176.728Z" fill="white"/>
<g opacity="0.35">
<path d="M179.868 191.93C178.911 201.721 173.721 211.161 170.615 210.266C167.325 209.32 163.37 212.547 157.559 208.895C153.061 206.066 151.886 199.261 152.679 192.559C153.214 196.469 154.73 199.819 157.559 201.597C163.37 205.245 167.24 203.55 170.615 202.969C174.787 202.249 178.188 197.71 179.868 191.93Z" fill="#232859"/>
</g>
<path d="M163.517 212.17C161.557 212.17 159.288 211.743 156.759 210.154C154.496 208.731 152.861 206.429 151.901 203.312C151.094 200.696 150.793 197.509 151.029 194.094C151.308 190.05 152.306 185.901 153.839 182.411C155.011 179.746 157.019 176.292 159.933 174.976C168.061 171.307 176.507 175.212 176.863 175.38L177.154 175.518L177.362 175.763C181.606 180.747 181.851 187.633 181.309 192.531C180.698 198.05 178.743 203.905 176.204 207.81C173.662 211.722 171.534 212.084 170.196 211.699C169.328 211.449 168.231 211.623 166.961 211.826C165.957 211.986 164.803 212.17 163.517 212.17ZM167.469 176.394C165.194 176.394 163.085 176.828 161.17 177.693C159.594 178.404 157.922 180.56 156.583 183.608C155.204 186.745 154.269 190.641 154.016 194.3C153.57 200.759 155.152 205.619 158.357 207.633C161.588 209.664 164.08 209.266 166.489 208.882C168.047 208.634 169.518 208.399 171.029 208.835C171.203 208.865 172.448 208.386 174.205 205.355C178.302 198.287 180.9 184.939 175.295 177.951C174.66 177.688 173.025 177.069 170.886 176.699C169.71 176.496 168.57 176.394 167.469 176.394Z" fill="#232859"/>
</svg>
