<svg width="16" height="16" viewBox="0 0 16 16" fill="none" xmlns="http://www.w3.org/2000/svg">
<g clip-path="url(#clip0_188_22)">
<path d="M3.51066 6.50997C3.82258 5.56627 4.42457 4.74518 5.23074 4.16383C6.03691 3.58249 7.00608 3.27059 7.99999 3.27264C9.12666 3.27264 10.1453 3.67264 10.9453 4.3273L13.2733 1.99997C11.8547 0.763303 10.0367 -3.05176e-05 7.99999 -3.05176e-05C4.84666 -3.05176e-05 2.13199 1.79864 0.82666 4.4333L3.51066 6.50997Z" fill="#EA4335"/>
<path d="M10.6934 12.0087C9.96671 12.4773 9.04404 12.7273 8.00004 12.7273C7.01009 12.7294 6.04458 12.4199 5.2402 11.8429C4.43582 11.2658 3.83334 10.4504 3.51804 9.51199L0.824707 11.5567C1.48554 12.8942 2.50822 14.0196 3.77659 14.805C5.04496 15.5905 6.50818 16.0045 8.00004 16C9.95537 16 11.8234 15.3047 13.2227 14L10.694 12.0087H10.6934Z" fill="#34A853"/>
<path d="M13.2224 14C14.6858 12.6347 15.6358 10.6027 15.6358 7.99999C15.6358 7.52665 15.5631 7.01799 15.4544 6.54532H7.99976V9.63665H12.2904C12.0791 10.676 11.5104 11.4807 10.6938 12.0087L13.2224 14Z" fill="#4A90E2"/>
<path d="M3.51808 9.51198C3.35498 9.02458 3.27212 8.51394 3.27274 7.99998C3.27274 7.47865 3.35608 6.97798 3.51074 6.50998L0.826744 4.43331C0.277663 5.54177 -0.00538663 6.76299 7.76364e-05 7.99998C7.76364e-05 9.27998 0.296744 10.4866 0.824744 11.5566L3.51808 9.51198Z" fill="#FBBC05"/>
</g>
<defs>
<clipPath id="clip0_188_22">
<rect width="16" height="16" fill="white"/>
</clipPath>
</defs>
</svg>
