<svg width="19" height="19" viewBox="0 0 19 19" fill="none" xmlns="http://www.w3.org/2000/svg">
<path d="M9.54692 11.6365C10.0615 11.6365 10.555 11.4321 10.9189 11.0682C11.2828 10.7043 11.4872 10.2108 11.4872 9.69621C11.4872 9.63939 11.4846 9.58309 11.4797 9.52748L9.37819 11.629C9.43379 11.6339 9.48992 11.6365 9.54692 11.6365ZM15.9692 3.69455L15.2291 2.95517C15.2031 2.9292 15.1679 2.91461 15.1312 2.91461C15.0944 2.91461 15.0592 2.9292 15.0332 2.95517L13.1394 4.84953C12.0946 4.31561 10.9202 4.04865 9.61621 4.04865C6.28658 4.04865 3.80235 5.78276 2.16351 9.25099C2.09764 9.39048 2.06348 9.54282 2.06348 9.69708C2.06348 9.85134 2.09764 10.0037 2.16351 10.1432C2.81835 11.5225 3.60687 12.628 4.52908 13.4598L2.69639 15.2918C2.67042 15.3178 2.65583 15.353 2.65583 15.3898C2.65583 15.4265 2.67042 15.4617 2.69639 15.4877L3.43595 16.2273C3.46193 16.2533 3.49717 16.2678 3.53391 16.2678C3.57065 16.2678 3.60589 16.2533 3.63188 16.2273L15.9692 3.89066C15.9821 3.87779 15.9923 3.8625 15.9993 3.84568C16.0063 3.82885 16.0098 3.81082 16.0098 3.7926C16.0098 3.77439 16.0063 3.75636 15.9993 3.73953C15.9923 3.72271 15.9821 3.70742 15.9692 3.69455ZM6.49793 9.69621C6.49788 9.16958 6.63424 8.65191 6.89372 8.19364C7.1532 7.73537 7.52696 7.35212 7.97858 7.08123C8.4302 6.81034 8.94429 6.66105 9.47076 6.6479C9.99723 6.63474 10.5181 6.75817 10.9827 7.00617L10.1404 7.84845C9.80075 7.73969 9.43767 7.72659 9.09103 7.81059C8.74439 7.8946 8.42758 8.07246 8.17538 8.32467C7.92317 8.57688 7.74531 8.89368 7.6613 9.24032C7.5773 9.58696 7.5904 9.95004 7.69916 10.2897L6.85688 11.132C6.62051 10.6904 6.49719 10.1971 6.49793 9.69621Z" fill="#232859" fill-opacity="0.24"/>
<path d="M17.0691 9.24925C16.4593 7.96498 15.7334 6.91775 14.8916 6.10757L12.3946 8.6048C12.6051 9.15503 12.6517 9.75444 12.5289 10.3306C12.4061 10.9068 12.1191 11.4351 11.7025 11.8516C11.2859 12.2682 10.7576 12.5552 10.1815 12.678C9.60529 12.8009 9.00589 12.7542 8.45566 12.5437L6.33765 14.6617C7.32025 15.1164 8.41315 15.3438 9.61635 15.3438C12.946 15.3438 15.4302 13.6097 17.0691 10.1414C17.1349 10.0019 17.1691 9.8496 17.1691 9.69534C17.1691 9.54108 17.1349 9.38873 17.0691 9.24925Z" fill="#232859" fill-opacity="0.24"/>
</svg>
