<svg width="186" height="36" viewBox="0 0 186 36" fill="none" xmlns="http://www.w3.org/2000/svg">
<circle cx="18" cy="18" r="18" fill="white"/>
<path d="M22.8656 9.19646C18.2437 7.34982 9 8.00001 9 16.7149C9 29.7734 26 32.5 24.8464 23.0464" stroke="#7A89FE" stroke-width="3.5" stroke-linecap="round"/>
<path d="M16 18L28 15" stroke="#7A89FE" stroke-width="3.5" stroke-linecap="round"/>
<path d="M66.3274 14.7109H62.2834C62.2095 14.1877 62.0587 13.723 61.831 13.3168C61.6032 12.9044 61.3108 12.5535 60.9538 12.2642C60.5968 11.9749 60.1844 11.7533 59.7166 11.5994C59.255 11.4455 58.7533 11.3686 58.2116 11.3686C57.233 11.3686 56.3804 11.6117 55.6541 12.098C54.9278 12.5781 54.3646 13.2798 53.9645 14.2031C53.5644 15.1203 53.3643 16.2344 53.3643 17.5455C53.3643 18.8935 53.5644 20.026 53.9645 20.9432C54.3707 21.8603 54.937 22.5528 55.6634 23.0206C56.3897 23.4884 57.2299 23.7223 58.1839 23.7223C58.7195 23.7223 59.215 23.6515 59.6705 23.5099C60.1321 23.3684 60.5414 23.1622 60.8984 22.8913C61.2554 22.6143 61.5509 22.2789 61.7848 21.8849C62.0249 21.491 62.1911 21.0417 62.2834 20.5369L66.3274 20.5554C66.2228 21.4233 65.9612 22.2604 65.5426 23.0668C65.1302 23.867 64.5732 24.584 63.8714 25.218C63.1759 25.8459 62.3449 26.3445 61.3786 26.7138C60.4183 27.0769 59.3319 27.2585 58.1193 27.2585C56.4328 27.2585 54.9247 26.8769 53.5952 26.1136C52.2718 25.3504 51.2254 24.2455 50.456 22.799C49.6927 21.3525 49.3111 19.6013 49.3111 17.5455C49.3111 15.4834 49.6989 13.7292 50.4744 12.2827C51.25 10.8362 52.3026 9.73437 53.6321 8.97727C54.9616 8.21401 56.4574 7.83239 58.1193 7.83239C59.215 7.83239 60.2306 7.98627 61.1662 8.29403C62.108 8.6018 62.942 9.05114 63.6683 9.64204C64.3946 10.2268 64.9856 10.9439 65.4411 11.7933C65.9027 12.6428 66.1982 13.6153 66.3274 14.7109ZM69.1204 27V12.8182H72.9336V15.2926H73.0813C73.3398 14.4124 73.7738 13.7476 74.3832 13.2983C74.9925 12.8428 75.6942 12.6151 76.4883 12.6151C76.6853 12.6151 76.8976 12.6274 77.1254 12.652C77.3531 12.6766 77.5531 12.7105 77.7255 12.7536V16.2436C77.5408 16.1882 77.2854 16.139 76.9592 16.0959C76.6329 16.0528 76.3344 16.0312 76.0636 16.0312C75.485 16.0312 74.9679 16.1574 74.5124 16.4098C74.0631 16.656 73.7061 17.0007 73.4414 17.4439C73.1829 17.8871 73.0536 18.398 73.0536 18.9766V27H69.1204ZM82.619 32.3182C82.1204 32.3182 81.6526 32.2782 81.2156 32.1982C80.7847 32.1243 80.4277 32.0289 80.1445 31.9119L81.0309 28.9759C81.4925 29.1174 81.908 29.1944 82.2773 29.2067C82.6528 29.219 82.976 29.1328 83.2468 28.9482C83.5238 28.7635 83.7485 28.4496 83.9208 28.0064L84.1516 27.4062L79.0643 12.8182H83.2006L86.1367 23.233H86.2844L89.2482 12.8182H93.4123L87.9002 28.5327C87.6355 29.2959 87.2755 29.9607 86.82 30.527C86.3706 31.0994 85.8013 31.5395 85.1119 31.8473C84.4225 32.1612 83.5915 32.3182 82.619 32.3182ZM95.4251 32.3182V12.8182H99.3029V15.2003H99.4783C99.6507 14.8187 99.9 14.4309 100.226 14.0369C100.559 13.6368 100.989 13.3045 101.519 13.0398C102.054 12.7689 102.719 12.6335 103.513 12.6335C104.547 12.6335 105.501 12.9044 106.375 13.446C107.249 13.9815 107.948 14.791 108.471 15.8743C108.994 16.9515 109.256 18.3026 109.256 19.9276C109.256 21.5095 109.001 22.8452 108.49 23.9347C107.985 25.018 107.296 25.8397 106.422 26.3999C105.554 26.9538 104.581 27.2308 103.504 27.2308C102.741 27.2308 102.091 27.1046 101.556 26.8523C101.026 26.5999 100.592 26.2829 100.254 25.9013C99.9154 25.5135 99.6568 25.1226 99.4783 24.7287H99.3583V32.3182H95.4251ZM99.2752 19.9091C99.2752 20.7524 99.3922 21.4879 99.6261 22.1158C99.86 22.7436 100.199 23.233 100.642 23.5838C101.085 23.9285 101.623 24.1009 102.257 24.1009C102.898 24.1009 103.439 23.9254 103.882 23.5746C104.326 23.2176 104.661 22.7251 104.889 22.0973C105.123 21.4633 105.24 20.7339 105.24 19.9091C105.24 19.0904 105.126 18.3703 104.898 17.7486C104.67 17.1269 104.335 16.6406 103.892 16.2898C103.449 15.9389 102.904 15.7635 102.257 15.7635C101.617 15.7635 101.076 15.9328 100.632 16.2713C100.195 16.6098 99.86 17.09 99.6261 17.7116C99.3922 18.3333 99.2752 19.0658 99.2752 19.9091ZM119.422 12.8182V15.7727H110.881V12.8182H119.422ZM112.82 9.42045H116.753V22.642C116.753 23.0052 116.809 23.2884 116.919 23.4915C117.03 23.6884 117.184 23.8269 117.381 23.907C117.584 23.987 117.818 24.027 118.083 24.027C118.267 24.027 118.452 24.0116 118.637 23.9808C118.821 23.9439 118.963 23.9162 119.061 23.8977L119.68 26.8246C119.483 26.8861 119.206 26.9569 118.849 27.0369C118.492 27.1231 118.058 27.1754 117.547 27.1939C116.599 27.2308 115.768 27.1046 115.054 26.8153C114.346 26.526 113.796 26.0767 113.402 25.4673C113.008 24.858 112.814 24.0885 112.82 23.1591V9.42045ZM128.239 27.277C126.805 27.277 125.565 26.9723 124.518 26.3629C123.478 25.7474 122.675 24.8918 122.108 23.7962C121.542 22.6944 121.259 21.4171 121.259 19.9645C121.259 18.4995 121.542 17.2192 122.108 16.1236C122.675 15.0218 123.478 14.1662 124.518 13.5568C125.565 12.9413 126.805 12.6335 128.239 12.6335C129.673 12.6335 130.91 12.9413 131.951 13.5568C132.997 14.1662 133.803 15.0218 134.37 16.1236C134.936 17.2192 135.219 18.4995 135.219 19.9645C135.219 21.4171 134.936 22.6944 134.37 23.7962C133.803 24.8918 132.997 25.7474 131.951 26.3629C130.91 26.9723 129.673 27.277 128.239 27.277ZM128.257 24.2301C128.91 24.2301 129.455 24.0455 129.892 23.6761C130.329 23.3007 130.658 22.7898 130.88 22.1435C131.107 21.4972 131.221 20.7616 131.221 19.9368C131.221 19.112 131.107 18.3764 130.88 17.7301C130.658 17.0838 130.329 16.5729 129.892 16.1974C129.455 15.822 128.91 15.6342 128.257 15.6342C127.599 15.6342 127.045 15.822 126.596 16.1974C126.152 16.5729 125.817 17.0838 125.589 17.7301C125.368 18.3764 125.257 19.112 125.257 19.9368C125.257 20.7616 125.368 21.4972 125.589 22.1435C125.817 22.7898 126.152 23.3007 126.596 23.6761C127.045 24.0455 127.599 24.2301 128.257 24.2301ZM154.534 14.7109H150.49C150.417 14.1877 150.266 13.723 150.038 13.3168C149.81 12.9044 149.518 12.5535 149.161 12.2642C148.804 11.9749 148.391 11.7533 147.924 11.5994C147.462 11.4455 146.96 11.3686 146.419 11.3686C145.44 11.3686 144.587 11.6117 143.861 12.098C143.135 12.5781 142.572 13.2798 142.172 14.2031C141.771 15.1203 141.571 16.2344 141.571 17.5455C141.571 18.8935 141.771 20.026 142.172 20.9432C142.578 21.8603 143.144 22.5528 143.87 23.0206C144.597 23.4884 145.437 23.7223 146.391 23.7223C146.926 23.7223 147.422 23.6515 147.877 23.5099C148.339 23.3684 148.748 23.1622 149.105 22.8913C149.462 22.6143 149.758 22.2789 149.992 21.8849C150.232 21.491 150.398 21.0417 150.49 20.5369L154.534 20.5554C154.43 21.4233 154.168 22.2604 153.75 23.0668C153.337 23.867 152.78 24.584 152.078 25.218C151.383 25.8459 150.552 26.3445 149.586 26.7138C148.625 27.0769 147.539 27.2585 146.326 27.2585C144.64 27.2585 143.132 26.8769 141.802 26.1136C140.479 25.3504 139.432 24.2455 138.663 22.799C137.9 21.3525 137.518 19.6013 137.518 17.5455C137.518 15.4834 137.906 13.7292 138.681 12.2827C139.457 10.8362 140.51 9.73437 141.839 8.97727C143.169 8.21401 144.664 7.83239 146.326 7.83239C147.422 7.83239 148.438 7.98627 149.373 8.29403C150.315 8.6018 151.149 9.05114 151.875 9.64204C152.602 10.2268 153.193 10.9439 153.648 11.7933C154.11 12.6428 154.405 13.6153 154.534 14.7109ZM161.371 27.2678C160.467 27.2678 159.66 27.1108 158.952 26.7969C158.245 26.4768 157.684 26.0059 157.272 25.3842C156.866 24.7564 156.663 23.9747 156.663 23.0391C156.663 22.2512 156.807 21.5895 157.097 21.054C157.386 20.5185 157.78 20.0876 158.278 19.7614C158.777 19.4351 159.343 19.1889 159.977 19.0227C160.617 18.8565 161.288 18.7396 161.99 18.6719C162.815 18.5857 163.48 18.5057 163.984 18.4318C164.489 18.3518 164.855 18.2348 165.083 18.081C165.311 17.9271 165.425 17.6993 165.425 17.3977V17.3423C165.425 16.7576 165.24 16.3052 164.871 15.9851C164.508 15.665 163.991 15.505 163.32 15.505C162.612 15.505 162.049 15.6619 161.63 15.9759C161.211 16.2836 160.934 16.6714 160.799 17.1392L157.161 16.8438C157.346 15.982 157.709 15.2372 158.251 14.6094C158.792 13.9754 159.491 13.4891 160.347 13.1506C161.208 12.8059 162.205 12.6335 163.338 12.6335C164.126 12.6335 164.88 12.7259 165.6 12.9105C166.326 13.0952 166.97 13.3814 167.53 13.7692C168.096 14.157 168.542 14.6555 168.869 15.2649C169.195 15.8681 169.358 16.5914 169.358 17.4347V27H165.628V25.0334H165.517C165.289 25.4766 164.985 25.8674 164.603 26.206C164.221 26.5384 163.763 26.8 163.227 26.9908C162.692 27.1754 162.073 27.2678 161.371 27.2678ZM162.498 24.5533C163.076 24.5533 163.587 24.4394 164.031 24.2116C164.474 23.9777 164.821 23.6638 165.074 23.2699C165.326 22.8759 165.452 22.4297 165.452 21.9311V20.4261C165.329 20.5062 165.16 20.58 164.945 20.6477C164.735 20.7093 164.498 20.7678 164.234 20.8232C163.969 20.8724 163.704 20.9186 163.44 20.9616C163.175 20.9986 162.935 21.0324 162.719 21.0632C162.258 21.1309 161.855 21.2386 161.51 21.3864C161.165 21.5341 160.897 21.7341 160.707 21.9865C160.516 22.2327 160.42 22.5405 160.42 22.9098C160.42 23.4453 160.614 23.8546 161.002 24.1378C161.396 24.4148 161.895 24.5533 162.498 24.5533ZM176.343 8.09091V27H172.409V8.09091H176.343ZM183.427 8.09091V27H179.493V8.09091H183.427Z" fill="white"/>
</svg>
