<svg width="17" height="17" viewBox="0 0 17 17" fill="none" xmlns="http://www.w3.org/2000/svg">
<path d="M12.7502 5.66665H14.1669C14.3548 5.66665 14.5349 5.74127 14.6678 5.87411C14.8006 6.00695 14.8752 6.18712 14.8752 6.37498V14.875C14.8752 15.0628 14.8006 15.243 14.6678 15.3758C14.5349 15.5087 14.3548 15.5833 14.1669 15.5833H2.83358C2.64572 15.5833 2.46555 15.5087 2.33271 15.3758C2.19987 15.243 2.12524 15.0628 2.12524 14.875V6.37498C2.12524 6.18712 2.19987 6.00695 2.33271 5.87411C2.46555 5.74127 2.64572 5.66665 2.83358 5.66665H4.25024V4.95831C4.25024 3.83114 4.69801 2.75014 5.49504 1.95311C6.29207 1.15608 7.37307 0.708313 8.50024 0.708313C9.62741 0.708313 10.7084 1.15608 11.5054 1.95311C12.3025 2.75014 12.7502 3.83114 12.7502 4.95831V5.66665ZM11.3336 5.66665V4.95831C11.3336 4.20687 11.0351 3.4862 10.5037 2.95484C9.97236 2.42349 9.25169 2.12498 8.50024 2.12498C7.7488 2.12498 7.02813 2.42349 6.49677 2.95484C5.96542 3.4862 5.66691 4.20687 5.66691 4.95831V5.66665H11.3336ZM7.79191 9.91665V11.3333H9.20858V9.91665H7.79191ZM4.95858 9.91665V11.3333H6.37524V9.91665H4.95858ZM10.6252 9.91665V11.3333H12.0419V9.91665H10.6252Z" fill="#232859"/>
</svg>
